<?xml version="1.0" standalone="no"?>
<!DOCTYPE svg PUBLIC "-//W3C//DTD SVG 20010904//EN"
 "http://www.w3.org/TR/2001/REC-SVG-20010904/DTD/svg10.dtd">
<svg version="1.0" xmlns="http://www.w3.org/2000/svg"
 width="1067.000000pt" height="1067.000000pt" viewBox="0 0 1067.000000 1067.000000"
 preserveAspectRatio="xMidYMid meet">
<metadata>
Created by potrace 1.11, written by Peter Selinger 2001-2013
</metadata>
<g transform="translate(0.000000,1067.000000) scale(0.100000,-0.100000)"
fill="#000000" stroke="none">
<path d="M4945 10210 c-873 -76 -1677 -362 -2382 -847 -1066 -732 -1807 -1876
-2037 -3143 -61 -338 -80 -593 -73 -980 6 -300 12 -391 48 -629 187 -1275 876
-2421 1924 -3201 1036 -772 2348 -1098 3645 -905 1359 202 2592 995 3354 2157
638 974 904 2141 755 3308 -135 1058 -625 2055 -1384 2815 -490 491 -1050 857
-1695 1110 -394 154 -804 252 -1275 306 -126 14 -747 20 -880 9z m670 -290
c1083 -73 2052 -489 2845 -1222 680 -629 1158 -1465 1359 -2378 266 -1209 24
-2498 -661 -3523 -285 -427 -656 -821 -1065 -1129 -1061 -802 -2442 -1103
-3743 -817 -1300 287 -2417 1126 -3053 2296 -452 830 -639 1814 -522 2748 167
1334 898 2520 2010 3260 203 135 358 224 560 321 705 338 1507 495 2270 444z"/>
<path d="M4990 9629 c-1480 -120 -2789 -989 -3479 -2310 -265 -509 -425 -1070
-471 -1663 -12 -155 -13 -546 -1 -564 6 -11 49 -4 212 32 464 102 990 196
1464 261 143 19 274 38 291 40 l31 5 12 123 c44 451 220 880 504 1232 84 103
280 294 382 372 348 263 748 421 1180 464 158 16 434 6 590 -20 154 -26 342
-78 475 -131 806 -321 1366 -1075 1439 -1936 5 -58 13 -99 21 -104 6 -4 42
-10 79 -14 340 -34 1121 -167 1650 -282 139 -30 256 -52 260 -49 13 14 4 540
-13 693 -93 853 -403 1602 -941 2272 -124 154 -381 419 -538 553 -711 607
-1562 958 -2487 1027 -157 12 -508 11 -660 -1z"/>
<path d="M5116 7330 c-1047 -120 -1826 -1024 -1783 -2070 4 -80 13 -188 22
-240 106 -639 499 -1177 1075 -1469 408 -208 852 -267 1308 -176 304 62 607
205 852 402 89 72 267 254 331 338 184 241 315 529 374 817 91 456 32 900
-176 1308 -292 576 -827 967 -1469 1075 -112 19 -421 28 -534 15z m327 -1465
c145 -31 297 -143 364 -270 46 -88 63 -157 63 -254 0 -160 -45 -268 -159 -382
-114 -114 -222 -159 -382 -159 -207 0 -385 112 -478 301 -57 115 -71 213 -48
330 23 119 66 200 151 285 135 135 308 188 489 149z m-923 -717 c21 -82 33
-113 71 -189 106 -212 298 -367 534 -430 103 -27 297 -30 398 -6 93 23 196 68
277 122 82 54 193 170 243 251 44 72 94 195 103 252 l7 42 429 0 429 0 -6 -47
c-29 -209 -81 -379 -170 -558 -86 -172 -175 -295 -315 -435 -140 -140 -263
-229 -435 -315 -278 -139 -578 -198 -878 -174 -646 52 -1200 459 -1436 1055
-53 135 -111 369 -111 452 l0 22 425 0 424 0 11 -42z"/>
<path d="M3005 5132 c-114 -12 -631 -89 -825 -123 -395 -67 -1095 -211 -1111
-227 -4 -4 6 -82 21 -173 214 -1258 989 -2366 2104 -3009 1384 -797 3129 -751
4471 118 438 283 845 668 1146 1082 332 457 565 955 698 1492 39 154 91 428
91 473 0 19 -20 26 -237 73 -486 107 -999 199 -1488 266 -137 19 -251 33 -252
33 -1 -1 -9 -55 -18 -121 -68 -493 -293 -944 -650 -1301 -618 -618 -1514 -829
-2348 -555 -679 224 -1224 768 -1450 1450 -47 139 -90 333 -103 453 -3 37 -9
69 -13 70 -3 1 -19 1 -36 -1z"/>
</g>
</svg>
